<svg width="25" height="24" viewBox="0 0 25 24" fill="none" xmlns="http://www.w3.org/2000/svg">
<rect width="25" height="24" fill="#1E1E1E"/>
<g id="Portfolio DevChapter">
<rect width="1440" height="6976" transform="translate(-1122 -1246)" fill="white"/>
<g id="SERVICES">
<rect width="1440" height="774" transform="translate(-1122 -365)" fill="#FBFBFB"/>
<g id="Items">
<g id="Service item">
<rect x="-168" y="-69" width="361" height="294" rx="8" fill="white"/>
<g id="Icon">
<rect x="-15.5" y="-16" width="56" height="56" rx="16" fill="#F5F3FE"/>
<g id="globe">
<path id="shape" d="M21.5 12C21.5 16.9706 17.4706 21 12.5 21M21.5 12C21.5 7.02944 17.4706 3 12.5 3M21.5 12H3.5M12.5 21C7.52944 21 3.5 16.9706 3.5 12M12.5 21C12.5 21 16.5 18 16.5 12C16.5 6 12.5 3 12.5 3M12.5 21C12.5 21 8.5 18 8.5 12C8.5 6 12.5 3 12.5 3M3.5 12C3.5 7.02944 7.52944 3 12.5 3" stroke="#7E74F1" stroke-width="1.5"/>
</g>
</g>
</g>
</g>
</g>
</g>
</svg>
