<svg width="24" height="24" viewBox="0 0 24 24" fill="none" xmlns="http://www.w3.org/2000/svg">
<rect width="24" height="24" fill="#1E1E1E"/>
<g id="Portfolio DevChapter" clip-path="url(#clip0_1_2)">
<rect width="1440" height="6976" transform="translate(-792 -6657)" fill="white"/>
<g id="FOOTER">
<rect width="1434" height="241" transform="translate(-789 -88)" fill="white"/>
<g id="Social media">
<g id="Linkedin">
<path id="Vector" d="M17.5 8.99891C16.6047 8.99853 15.7233 9.21997 14.9346 9.64344C14.8626 9.45386 14.7346 9.29068 14.5677 9.17555C14.4008 9.06043 14.2028 8.99882 14 8.99891H10C9.86866 8.99883 9.73859 9.02465 9.61723 9.07488C9.49587 9.1251 9.3856 9.19876 9.29273 9.29164C9.19985 9.38451 9.1262 9.49478 9.07597 9.61614C9.02574 9.7375 8.99993 9.86757 9 9.99891V21.9989C8.99993 22.1303 9.02574 22.2603 9.07597 22.3817C9.12619 22.503 9.19985 22.6133 9.29272 22.7062C9.3856 22.7991 9.49587 22.8727 9.61723 22.9229C9.73859 22.9732 9.86866 22.999 10 22.9989H14C14.1313 22.999 14.2614 22.9732 14.3828 22.9229C14.5041 22.8727 14.6144 22.7991 14.7073 22.7062C14.8002 22.6133 14.8738 22.503 14.924 22.3817C14.9743 22.2603 15.0001 22.1303 15 21.9989V16.4989C15 16.2337 15.1054 15.9793 15.2929 15.7918C15.4804 15.6043 15.7348 15.4989 16 15.4989C16.2652 15.4989 16.5196 15.6043 16.7071 15.7918C16.8946 15.9793 17 16.2337 17 16.4989V21.9989C16.9999 22.1303 17.0257 22.2603 17.076 22.3817C17.1262 22.503 17.1999 22.6133 17.2927 22.7062C17.3856 22.7991 17.4959 22.8727 17.6172 22.9229C17.7386 22.9732 17.8687 22.999 18 22.9989H22C22.1313 22.999 22.2614 22.9732 22.3828 22.9229C22.5041 22.8727 22.6144 22.7991 22.7073 22.7062C22.8002 22.6133 22.8738 22.503 22.924 22.3817C22.9743 22.2603 23.0001 22.1303 23 21.9989V14.4989C22.9982 13.0408 22.4181 11.6429 21.3871 10.6118C20.356 9.58077 18.9581 9.00072 17.5 8.99891ZM21 20.9989H19V16.4989C19 15.7033 18.6839 14.9402 18.1213 14.3776C17.5587 13.815 16.7957 13.4989 16 13.4989C15.2044 13.4989 14.4413 13.815 13.8787 14.3776C13.3161 14.9402 13 15.7033 13 16.4989V20.9989H11V10.9989H13V11.702C13.0001 11.9092 13.0646 12.1113 13.1845 12.2803C13.3043 12.4493 13.4737 12.5769 13.6692 12.6455C13.8647 12.7141 14.0767 12.7203 14.2759 12.6633C14.4751 12.6062 14.6517 12.4887 14.7813 12.327C15.23 11.7571 15.8456 11.3415 16.542 11.1383C17.2384 10.9351 17.9809 10.9544 18.6657 11.1936C19.3506 11.4328 19.9437 11.8799 20.3622 12.4725C20.7806 13.065 21.0036 13.7735 21 14.4989V20.9989ZM7 8.99891H3C2.86866 8.99883 2.73859 9.02465 2.61723 9.07488C2.49587 9.1251 2.3856 9.19876 2.29273 9.29164C2.19985 9.38451 2.1262 9.49478 2.07597 9.61614C2.02574 9.7375 1.99993 9.86757 2 9.99891V21.9989C1.99993 22.1303 2.02574 22.2603 2.07597 22.3817C2.12619 22.503 2.19985 22.6133 2.29272 22.7062C2.3856 22.7991 2.49587 22.8727 2.61723 22.9229C2.73859 22.9732 2.86866 22.999 3 22.9989H7C7.13134 22.999 7.26142 22.9732 7.38277 22.9229C7.50413 22.8727 7.6144 22.7991 7.70728 22.7062C7.80015 22.6133 7.87381 22.503 7.92404 22.3817C7.97426 22.2603 8.00008 22.1303 8 21.9989V9.99891C8.00008 9.86757 7.97426 9.7375 7.92403 9.61614C7.87381 9.49478 7.80015 9.38451 7.70728 9.29164C7.6144 9.19876 7.50413 9.1251 7.38277 9.07488C7.26141 9.02465 7.13134 8.99883 7 8.99891ZM6 20.9989H4V10.9989H6V20.9989ZM5.01465 1.54191C4.57701 1.51571 4.13862 1.57881 3.72613 1.72735C3.31364 1.8759 2.93567 2.1068 2.61522 2.406C2.29476 2.70521 2.03852 3.06646 1.86206 3.46781C1.6856 3.86915 1.59262 4.3022 1.58878 4.7406C1.58493 5.17901 1.6703 5.61361 1.83969 6.01799C2.00907 6.42237 2.25894 6.78807 2.5741 7.09285C2.88925 7.39763 3.26311 7.63512 3.67293 7.79089C4.08275 7.94665 4.51997 8.01742 4.958 7.99891H4.98632C5.42512 8.02497 5.86462 7.96129 6.27798 7.81176C6.69133 7.66223 7.06986 7.42998 7.39042 7.12922C7.71099 6.82845 7.96686 6.46548 8.14241 6.06249C8.31796 5.65949 8.40949 5.22494 8.41142 4.78537C8.41335 4.3458 8.32563 3.91046 8.15362 3.50594C7.98162 3.10142 7.72894 2.73622 7.41102 2.43266C7.09311 2.12909 6.71663 1.89353 6.30461 1.74038C5.89258 1.58723 5.45365 1.5197 5.01464 1.54191H5.01465ZM4.98633 5.99891H4.958C4.78507 6.01991 4.60964 6.00369 4.44349 5.95134C4.27734 5.89899 4.1243 5.81171 3.99464 5.69537C3.86498 5.57903 3.7617 5.43631 3.69172 5.27678C3.62173 5.11726 3.58667 4.94461 3.58887 4.77042C3.58887 4.02432 4.14844 3.5419 5.01465 3.5419C5.18935 3.51861 5.36701 3.53303 5.53567 3.58418C5.70432 3.63534 5.86006 3.72204 5.99239 3.83845C6.12471 3.95486 6.23056 4.09828 6.30279 4.25904C6.37502 4.4198 6.41197 4.59418 6.41113 4.77042C6.41113 5.51651 5.85156 5.99891 4.98633 5.99891Z" fill="#656D72"/>
</g>
</g>
</g>
</g>
<defs>
<clipPath id="clip0_1_2">
<rect width="1440" height="6976" fill="white" transform="translate(-792 -6657)"/>
</clipPath>
</defs>
</svg>
