<svg width="24" height="24" viewBox="0 0 24 24" fill="none" xmlns="http://www.w3.org/2000/svg">
<rect width="24" height="24" fill="#1E1E1E"/>
<g id="Portfolio DevChapter" clip-path="url(#clip0_1_2)">
<rect width="1440" height="6976" transform="translate(-736 -6657)" fill="white"/>
<g id="FOOTER">
<rect width="1434" height="241" transform="translate(-733 -88)" fill="white"/>
<g id="Social media">
<g id="Twitter">
<path id="Vector" d="M22.9912 3.95021C22.9913 3.77357 22.9446 3.60007 22.8559 3.44735C22.7671 3.29464 22.6395 3.16817 22.4859 3.08084C22.3324 2.9935 22.1585 2.94842 21.9819 2.95017C21.8052 2.95193 21.6322 3.00046 21.4805 3.09083C20.8951 3.43921 20.265 3.70601 19.6075 3.88383C18.6684 3.07806 17.4708 2.63713 16.2335 2.64164C14.876 2.6432 13.5723 3.17223 12.5977 4.11702C11.623 5.06181 11.0536 6.3484 11.0098 7.70512C8.33381 7.27838 5.90846 5.88164 4.19628 3.78126C4.09312 3.65609 3.96136 3.55757 3.81214 3.494C3.66291 3.43043 3.50059 3.40368 3.33886 3.41601C3.17722 3.42932 3.02125 3.4818 2.88445 3.56892C2.74765 3.65603 2.63413 3.77516 2.5537 3.91601C2.14123 4.63582 1.90433 5.44276 1.86225 6.27131C1.82017 7.09986 1.97409 7.92666 2.31151 8.68456L2.30956 8.68651C2.15791 8.77991 2.03275 8.91066 1.94606 9.06625C1.85938 9.22185 1.81406 9.39708 1.81444 9.57519C1.8126 9.72211 1.82142 9.86898 1.84081 10.0146C1.94295 11.2729 2.50059 12.4507 3.40917 13.3271C3.34753 13.4446 3.30991 13.5731 3.29851 13.7052C3.28711 13.8373 3.30215 13.9704 3.34276 14.0967C3.73887 15.3308 4.58126 16.3727 5.70507 17.0185C4.56331 17.46 3.33049 17.614 2.11522 17.4668C1.89029 17.4386 1.66245 17.4876 1.46907 17.6059C1.27569 17.7242 1.12825 17.9047 1.05093 18.1178C0.973623 18.3309 0.97103 18.5639 1.04358 18.7787C1.11613 18.9935 1.25952 19.1772 1.45022 19.2998C3.54031 20.646 5.9739 21.3617 8.45999 21.3613C11.2792 21.393 14.03 20.4921 16.2842 18.7988C18.5385 17.1054 20.1699 14.7145 20.9248 11.998C21.2779 10.8146 21.4581 9.58648 21.46 8.35157C21.46 8.28614 21.46 8.21876 21.459 8.15138C21.9811 7.58831 22.3856 6.92668 22.6487 6.20527C22.9118 5.48387 23.0282 4.7172 22.9912 3.95021ZM19.6846 7.16212C19.5194 7.35746 19.4358 7.60891 19.4512 7.86427C19.4609 8.02927 19.4599 8.19527 19.4599 8.35157C19.4579 9.39511 19.3049 10.4329 19.0058 11.4326C18.3893 13.744 17.015 15.7817 15.1029 17.2192C13.1909 18.6568 10.8517 19.4111 8.45999 19.3613C7.60087 19.3616 6.74471 19.2606 5.90921 19.0606C6.97462 18.7172 7.9708 18.1879 8.85159 17.4971C9.01381 17.3693 9.13254 17.1945 9.19148 16.9967C9.25041 16.7988 9.24667 16.5875 9.18076 16.3918C9.11486 16.1961 8.99002 16.0257 8.82337 15.9038C8.65672 15.7819 8.45643 15.7145 8.24999 15.7109C7.41882 15.698 6.62512 15.363 6.03612 14.7764C6.18554 14.7481 6.33398 14.7129 6.48144 14.6709C6.69745 14.6094 6.88648 14.477 7.0181 14.295C7.14972 14.1131 7.21626 13.8921 7.20701 13.6677C7.19777 13.4433 7.11327 13.2285 6.96712 13.058C6.82098 12.8874 6.6217 12.7711 6.40136 12.7275C5.9189 12.6323 5.46491 12.427 5.07467 12.1277C4.68444 11.8284 4.36848 11.4432 4.15136 11.002C4.33209 11.0266 4.51397 11.0419 4.69628 11.0479C4.91286 11.0511 5.12487 10.9854 5.30166 10.8603C5.47844 10.7351 5.61083 10.5569 5.67968 10.3516C5.74566 10.1443 5.74226 9.92123 5.67001 9.7161C5.59775 9.51096 5.46058 9.33499 5.27929 9.21485C4.83944 8.92182 4.47913 8.52427 4.23065 8.0578C3.98216 7.59134 3.85325 7.07052 3.85546 6.54201C3.85546 6.47561 3.85741 6.4092 3.86132 6.34377C6.10258 8.43402 9.00964 9.66621 12.0703 9.82326C12.2248 9.82934 12.3787 9.80024 12.5203 9.73816C12.6619 9.67607 12.7875 9.58262 12.8877 9.46486C12.9869 9.34596 13.0571 9.20566 13.0929 9.05501C13.1286 8.90437 13.1289 8.74748 13.0937 8.5967C13.0365 8.35806 13.0074 8.11357 13.0068 7.86818C13.0077 7.01271 13.3479 6.19254 13.9529 5.58764C14.5578 4.98274 15.3779 4.64251 16.2334 4.64161C16.6735 4.64043 17.1091 4.7305 17.5127 4.90615C17.9163 5.0818 18.279 5.3392 18.5781 5.66212C18.6934 5.7862 18.8386 5.87871 18.9998 5.93085C19.161 5.98299 19.3328 5.99303 19.499 5.96001C19.9098 5.88006 20.3147 5.7724 20.7109 5.63775C20.4406 6.19072 20.0953 6.70369 19.6846 7.16212Z" fill="#656D72"/>
</g>
</g>
</g>
</g>
<defs>
<clipPath id="clip0_1_2">
<rect width="1440" height="6976" fill="white" transform="translate(-736 -6657)"/>
</clipPath>
</defs>
</svg>
